# xmcd
#
# Track frame offsets:
# 150
# 31155
# 43403
# 73050
# 85926
# 103156
# 118101
# 127723
# 141525
# 158897
#
# Disc length: 2291 seconds
#
#
# Revision: 0
# Processed by: cddbd v1.5.1PL2 Copyright (c) Steve Scherf et al.
# Submitted via: FreeRIP 2.942 
#
DISCID=8e08f10a
DTITLE=ZEN-ZEN-ZEN - ZEN-ZEN-ZEN
DYEAR=2005
DGENRE=Country
TTITLE0=Knocking on Heaven's Door
TTITLE1=Country Roads
TTITLE2=Wild Horses
TTITLE3=Byla Ne Byla
TTITLE4=ZEN-ZEN-ZEN
TTITLE5=Blue Hotel
TTITLE6=Jiggs
TTITLE7=Shaman's Dance
TTITLE8=I Don't Know How To Love Him
TTITLE9=San Francisco
EXTD=www.zen.ru
EXTT0=
EXTT1=
EXTT2=
EXTT3=
EXTT4=
EXTT5=
EXTT6=
EXTT7=
EXTT8=
EXTT9=
PLAYORDER=
